# Blender 4.4.3
# www.blender.org
mtllib malakLenses.mtl
o Circle.002
v 0.041049 0.046049 -0.024183
v 0.041049 0.046049 -0.024183
v 0.041049 0.046049 -0.024183
v 0.041049 0.046049 -0.024183
v 0.040280 0.045814 -0.024127
v 0.040280 0.045814 -0.024127
v 0.040280 0.045814 -0.024127
v 0.040280 0.045814 -0.024127
v 0.040280 0.045814 -0.024127
v 0.043548 0.047536 -0.024405
v 0.046362 0.049039 -0.024658
v 0.046362 0.049039 -0.024658
v 0.046362 0.049039 -0.024658
v 0.049092 0.050027 -0.024895
v 0.051742 0.050699 -0.025123
v 0.051742 0.050699 -0.025123
v 0.051742 0.050699 -0.025123
v 0.051742 0.050699 -0.025123
v 0.051742 0.050699 -0.025123
v 0.054269 0.051060 -0.025337
v 0.056649 0.051119 -0.025536
v 0.056649 0.051119 -0.025536
v 0.056649 0.051119 -0.025536
v 0.058861 0.050893 -0.025716
v 0.060889 0.050399 -0.025876
v 0.060889 0.050399 -0.025876
v 0.060889 0.050399 -0.025876
v 0.060889 0.050399 -0.025876
v 0.060889 0.050399 -0.025876
v 0.060889 0.050399 -0.025876
v 0.060889 0.050399 -0.025876
v 0.060889 0.050399 -0.025876
v 0.060889 0.050399 -0.025876
v 0.062717 0.049653 -0.026011
v 0.064333 0.048676 -0.026122
v 0.064333 0.048676 -0.026122
v 0.064333 0.048676 -0.026122
v 0.065727 0.047485 -0.026205
v 0.066887 0.046100 -0.026259
v 0.066887 0.046100 -0.026259
v 0.066887 0.046100 -0.026259
v 0.066887 0.046100 -0.026259
v 0.066887 0.046100 -0.026259
v 0.067804 0.044544 -0.026282
v 0.068467 0.042825 -0.026274
v 0.068467 0.042825 -0.026274
v 0.068467 0.042825 -0.026274
v 0.068869 0.040957 -0.026232
v 0.069004 0.038960 -0.026158
v 0.069004 0.038960 -0.026158
v 0.069004 0.038960 -0.026158
v 0.069004 0.038960 -0.026158
v 0.069004 0.038960 -0.026158
v 0.069004 0.038960 -0.026158
v 0.069004 0.038960 -0.026158
v 0.068869 0.036857 -0.026050
v 0.068461 0.034671 -0.025911
v 0.068461 0.034671 -0.025911
v 0.068461 0.034671 -0.025911
v 0.067783 0.032425 -0.025742
v 0.066841 0.030142 -0.025545
v 0.066841 0.030142 -0.025545
v 0.066841 0.030142 -0.025545
v 0.066841 0.030142 -0.025545
v 0.066841 0.030142 -0.025545
v 0.065641 0.027843 -0.025324
v 0.064194 0.025550 -0.025081
v 0.064194 0.025550 -0.025081
v 0.064194 0.025550 -0.025081
v 0.062512 0.023283 -0.024821
v 0.060611 0.021058 -0.024547
v 0.060611 0.021058 -0.024547
v 0.060611 0.021058 -0.024547
v 0.060611 0.021058 -0.024547
v 0.060611 0.021058 -0.024547
v 0.060611 0.021058 -0.024547
v 0.060611 0.021058 -0.024547
v 0.060611 0.021058 -0.024547
v 0.060611 0.021058 -0.024547
v 0.060611 0.021058 -0.024547
v 0.058507 0.018895 -0.024264
v 0.056222 0.016810 -0.023976
v 0.056222 0.016810 -0.023976
v 0.056222 0.016810 -0.023976
v 0.053775 0.014817 -0.023688
v 0.051192 0.012936 -0.023403
v 0.051192 0.012936 -0.023403
v 0.051192 0.012936 -0.023403
v 0.051192 0.012936 -0.023403
v 0.051192 0.012936 -0.023403
v 0.048497 0.011199 -0.023127
v 0.045715 0.009615 -0.022863
v 0.045715 0.009615 -0.022863
v 0.045715 0.009615 -0.022863
v 0.042874 0.008190 -0.022614
v 0.040283 0.007055 -0.022405
v 0.040283 0.007055 -0.022405
v 0.040283 0.007055 -0.022405
v 0.040283 0.007055 -0.022405
v 0.040283 0.007055 -0.022405
v 0.040283 0.007055 -0.022405
v 0.040283 0.007055 -0.022405
v 0.037688 0.008184 -0.022307
v 0.034834 0.009601 -0.022218
v 0.034834 0.009601 -0.022218
v 0.034834 0.009601 -0.022218
v 0.032031 0.011178 -0.022151
v 0.029307 0.012908 -0.022105
v 0.029307 0.012908 -0.022105
v 0.029307 0.012908 -0.022105
v 0.029307 0.012908 -0.022105
v 0.029307 0.012908 -0.022105
v 0.026688 0.014782 -0.022081
v 0.024200 0.016769 -0.022077
v 0.024200 0.016769 -0.022077
v 0.024200 0.016769 -0.022077
v 0.021870 0.018849 -0.022091
v 0.019721 0.021006 -0.022122
v 0.019721 0.021006 -0.022122
v 0.019721 0.021006 -0.022122
v 0.019721 0.021006 -0.022122
v 0.019721 0.021006 -0.022122
v 0.019721 0.021006 -0.022122
v 0.019721 0.021006 -0.022122
v 0.019721 0.021006 -0.022122
v 0.019721 0.021006 -0.022122
v 0.019721 0.021006 -0.022122
v 0.017773 0.023225 -0.022167
v 0.016047 0.025489 -0.022225
v 0.016047 0.025489 -0.022225
v 0.016047 0.025489 -0.022225
v 0.014559 0.027778 -0.022294
v 0.013323 0.030073 -0.022371
v 0.013323 0.030073 -0.022371
v 0.013323 0.030073 -0.022371
v 0.013323 0.030073 -0.022371
v 0.013323 0.030073 -0.022371
v 0.012351 0.032354 -0.022454
v 0.011652 0.034598 -0.022541
v 0.011652 0.034598 -0.022541
v 0.011652 0.034598 -0.022541
v 0.011231 0.036783 -0.022631
v 0.011090 0.038886 -0.022723
v 0.011090 0.038886 -0.022723
v 0.011090 0.038886 -0.022723
v 0.011090 0.038886 -0.022723
v 0.011090 0.038886 -0.022723
v 0.011090 0.038886 -0.022723
v 0.011090 0.038886 -0.022723
v 0.011230 0.040883 -0.022814
v 0.011646 0.042753 -0.022904
v 0.011646 0.042753 -0.022904
v 0.011646 0.042753 -0.022904
v 0.012330 0.044472 -0.022992
v 0.013275 0.046032 -0.023079
v 0.013275 0.046032 -0.023079
v 0.013275 0.046032 -0.023079
v 0.013275 0.046032 -0.023079
v 0.013275 0.046032 -0.023079
v 0.014471 0.047419 -0.023164
v 0.015904 0.048614 -0.023249
v 0.015904 0.048614 -0.023249
v 0.015904 0.048614 -0.023249
v 0.017563 0.049595 -0.023333
v 0.019436 0.050345 -0.023417
v 0.019436 0.050345 -0.023417
v 0.019436 0.050345 -0.023417
v 0.019436 0.050345 -0.023417
v 0.019436 0.050345 -0.023417
v 0.019436 0.050345 -0.023417
v 0.019436 0.050345 -0.023417
v 0.019436 0.050345 -0.023417
v 0.019436 0.050345 -0.023417
v 0.021509 0.050845 -0.023501
v 0.023765 0.051077 -0.023586
v 0.023765 0.051077 -0.023586
v 0.023765 0.051077 -0.023586
v 0.026186 0.051024 -0.023672
v 0.028750 0.050670 -0.023759
v 0.028750 0.050670 -0.023759
v 0.028750 0.050670 -0.023759
v 0.028750 0.050670 -0.023759
v 0.028750 0.050670 -0.023759
v 0.031430 0.050004 -0.023847
v 0.034183 0.049023 -0.023936
v 0.034183 0.049023 -0.023936
v 0.034183 0.049023 -0.023936
v 0.037011 0.047527 -0.024017
v 0.039516 0.046044 -0.024092
v 0.039516 0.046044 -0.024092
v 0.039516 0.046044 -0.024092
v 0.039516 0.046044 -0.024092
v -0.040951 0.046049 -0.024183
v -0.040951 0.046049 -0.024183
v -0.040951 0.046049 -0.024183
v -0.040951 0.046049 -0.024183
v -0.040182 0.045814 -0.024127
v -0.040182 0.045814 -0.024127
v -0.040182 0.045814 -0.024127
v -0.040182 0.045814 -0.024127
v -0.040182 0.045814 -0.024127
v -0.043450 0.047536 -0.024405
v -0.046264 0.049039 -0.024658
v -0.046264 0.049039 -0.024658
v -0.046264 0.049039 -0.024658
v -0.048994 0.050027 -0.024895
v -0.051644 0.050699 -0.025123
v -0.051644 0.050699 -0.025123
v -0.051644 0.050699 -0.025123
v -0.051644 0.050699 -0.025123
v -0.051644 0.050699 -0.025123
v -0.054171 0.051060 -0.025337
v -0.056551 0.051119 -0.025536
v -0.056551 0.051119 -0.025536
v -0.056551 0.051119 -0.025536
v -0.058763 0.050893 -0.025716
v -0.060791 0.050399 -0.025876
v -0.060791 0.050399 -0.025876
v -0.060791 0.050399 -0.025876
v -0.060791 0.050399 -0.025876
v -0.060791 0.050399 -0.025876
v -0.060791 0.050399 -0.025876
v -0.060791 0.050399 -0.025876
v -0.060791 0.050399 -0.025876
v -0.060791 0.050399 -0.025876
v -0.062619 0.049653 -0.026011
v -0.064235 0.048676 -0.026122
v -0.064235 0.048676 -0.026122
v -0.064235 0.048676 -0.026122
v -0.065629 0.047485 -0.026205
v -0.066789 0.046100 -0.026259
v -0.066789 0.046100 -0.026259
v -0.066789 0.046100 -0.026259
v -0.066789 0.046100 -0.026259
v -0.066789 0.046100 -0.026259
v -0.067706 0.044544 -0.026282
v -0.068369 0.042825 -0.026274
v -0.068369 0.042825 -0.026274
v -0.068369 0.042825 -0.026274
v -0.068771 0.040957 -0.026232
v -0.068907 0.038960 -0.026158
v -0.068907 0.038960 -0.026158
v -0.068907 0.038960 -0.026158
v -0.068907 0.038960 -0.026158
v -0.068907 0.038960 -0.026158
v -0.068907 0.038960 -0.026158
v -0.068907 0.038960 -0.026158
v -0.068771 0.036857 -0.026050
v -0.068363 0.034671 -0.025911
v -0.068363 0.034671 -0.025911
v -0.068363 0.034671 -0.025911
v -0.067686 0.032425 -0.025742
v -0.066743 0.030142 -0.025545
v -0.066743 0.030142 -0.025545
v -0.066743 0.030142 -0.025545
v -0.066743 0.030142 -0.025545
v -0.066743 0.030142 -0.025545
v -0.065543 0.027843 -0.025324
v -0.064096 0.025550 -0.025081
v -0.064096 0.025550 -0.025081
v -0.064096 0.025550 -0.025081
v -0.062414 0.023283 -0.024821
v -0.060513 0.021058 -0.024547
v -0.060513 0.021058 -0.024547
v -0.060513 0.021058 -0.024547
v -0.060513 0.021058 -0.024547
v -0.060513 0.021058 -0.024547
v -0.060513 0.021058 -0.024547
v -0.060513 0.021058 -0.024547
v -0.060513 0.021058 -0.024547
v -0.060513 0.021058 -0.024547
v -0.060513 0.021058 -0.024547
v -0.058410 0.018895 -0.024264
v -0.056124 0.016810 -0.023976
v -0.056124 0.016810 -0.023976
v -0.056124 0.016810 -0.023976
v -0.053677 0.014817 -0.023688
v -0.051094 0.012936 -0.023403
v -0.051094 0.012936 -0.023403
v -0.051094 0.012936 -0.023403
v -0.051094 0.012936 -0.023403
v -0.051094 0.012936 -0.023403
v -0.048399 0.011199 -0.023127
v -0.045618 0.009615 -0.022863
v -0.045618 0.009615 -0.022863
v -0.045618 0.009615 -0.022863
v -0.042776 0.008190 -0.022614
v -0.040185 0.007055 -0.022405
v -0.040185 0.007055 -0.022405
v -0.040185 0.007055 -0.022405
v -0.040185 0.007055 -0.022405
v -0.040185 0.007055 -0.022405
v -0.040185 0.007055 -0.022405
v -0.040185 0.007055 -0.022405
v -0.037590 0.008184 -0.022307
v -0.034736 0.009601 -0.022218
v -0.034736 0.009601 -0.022218
v -0.034736 0.009601 -0.022218
v -0.031933 0.011178 -0.022151
v -0.029209 0.012908 -0.022105
v -0.029209 0.012908 -0.022105
v -0.029209 0.012908 -0.022105
v -0.029209 0.012908 -0.022105
v -0.029209 0.012908 -0.022105
v -0.026590 0.014782 -0.022081
v -0.024103 0.016769 -0.022077
v -0.024103 0.016769 -0.022077
v -0.024103 0.016769 -0.022077
v -0.021772 0.018849 -0.022091
v -0.019623 0.021006 -0.022122
v -0.019623 0.021006 -0.022122
v -0.019623 0.021006 -0.022122
v -0.019623 0.021006 -0.022122
v -0.019623 0.021006 -0.022122
v -0.019623 0.021006 -0.022122
v -0.019623 0.021006 -0.022122
v -0.019623 0.021006 -0.022122
v -0.019623 0.021006 -0.022122
v -0.019623 0.021006 -0.022122
v -0.017675 0.023225 -0.022167
v -0.015949 0.025489 -0.022225
v -0.015949 0.025489 -0.022225
v -0.015949 0.025489 -0.022225
v -0.014461 0.027778 -0.022294
v -0.013225 0.030073 -0.022371
v -0.013225 0.030073 -0.022371
v -0.013225 0.030073 -0.022371
v -0.013225 0.030073 -0.022371
v -0.013225 0.030073 -0.022371
v -0.012253 0.032354 -0.022454
v -0.011554 0.034598 -0.022541
v -0.011554 0.034598 -0.022541
v -0.011554 0.034598 -0.022541
v -0.011133 0.036783 -0.022631
v -0.010993 0.038886 -0.022723
v -0.010993 0.038886 -0.022723
v -0.010993 0.038886 -0.022723
v -0.010993 0.038886 -0.022723
v -0.010993 0.038886 -0.022723
v -0.010993 0.038886 -0.022723
v -0.010993 0.038886 -0.022723
v -0.011132 0.040883 -0.022814
v -0.011548 0.042753 -0.022904
v -0.011548 0.042753 -0.022904
v -0.011548 0.042753 -0.022904
v -0.012232 0.044472 -0.022992
v -0.013177 0.046032 -0.023079
v -0.013177 0.046032 -0.023079
v -0.013177 0.046032 -0.023079
v -0.013177 0.046032 -0.023079
v -0.013177 0.046032 -0.023079
v -0.014373 0.047419 -0.023164
v -0.015806 0.048614 -0.023249
v -0.015806 0.048614 -0.023249
v -0.015806 0.048614 -0.023249
v -0.017465 0.049595 -0.023333
v -0.019338 0.050345 -0.023417
v -0.019338 0.050345 -0.023417
v -0.019338 0.050345 -0.023417
v -0.019338 0.050345 -0.023417
v -0.019338 0.050345 -0.023417
v -0.019338 0.050345 -0.023417
v -0.019338 0.050345 -0.023417
v -0.019338 0.050345 -0.023417
v -0.019338 0.050345 -0.023417
v -0.021411 0.050845 -0.023501
v -0.023667 0.051077 -0.023586
v -0.023667 0.051077 -0.023586
v -0.023667 0.051077 -0.023586
v -0.026089 0.051024 -0.023672
v -0.028652 0.050670 -0.023759
v -0.028652 0.050670 -0.023759
v -0.028652 0.050670 -0.023759
v -0.028652 0.050670 -0.023759
v -0.028652 0.050670 -0.023759
v -0.031332 0.050004 -0.023847
v -0.034085 0.049023 -0.023936
v -0.034085 0.049023 -0.023936
v -0.034085 0.049023 -0.023936
v -0.036913 0.047527 -0.024017
v -0.039419 0.046044 -0.024092
v -0.039419 0.046044 -0.024092
v -0.039419 0.046044 -0.024092
v -0.039419 0.046044 -0.024092
vn -0.0591 -0.0316 -0.9977
vn -0.1012 0.0219 -0.9946
vn -0.0841 -0.0062 -0.9964
vn -0.0830 -0.0121 -0.9965
vn -0.0833 -0.0209 -0.9963
vn -0.0864 -0.0305 -0.9958
vn -0.0919 -0.0382 -0.9950
vn -0.0982 -0.0427 -0.9943
vn -0.1024 -0.0441 -0.9938
vn -0.1024 -0.0442 -0.9938
vn -0.0970 -0.0456 -0.9942
vn -0.0868 -0.0505 -0.9949
vn -0.0731 -0.0600 -0.9955
vn -0.0581 -0.0737 -0.9956
vn -0.0449 -0.0889 -0.9950
vn -0.0377 -0.0995 -0.9943
vn -0.0325 -0.1088 -0.9935
vn -0.0853 -0.1097 -0.9903
vn -0.0802 -0.1002 -0.9917
vn -0.0729 -0.0892 -0.9933
vn -0.0598 -0.0737 -0.9955
vn -0.0450 -0.0599 -0.9972
vn -0.0318 -0.0506 -0.9982
vn -0.0219 -0.0458 -0.9987
vn -0.0168 -0.0444 -0.9989
vn -0.0168 -0.0443 -0.9989
vn -0.0208 -0.0430 -0.9989
vn -0.0269 -0.0385 -0.9989
vn -0.0323 -0.0308 -0.9990
vn -0.0353 -0.0214 -0.9991
vn -0.0357 -0.0127 -0.9993
vn -0.0347 -0.0070 -0.9994
vn -0.0189 0.0187 -0.9996
vn -0.0365 -0.0130 -0.9992
vn -0.0361 -0.0170 -0.9992
vn -0.0302 -0.0352 -0.9989
vn -0.0187 -0.0440 -0.9989
vn -0.0190 -0.0447 -0.9988
vn -0.0383 -0.0544 -0.9978
vn -0.0669 -0.0812 -0.9945
vn -0.0835 -0.1058 -0.9909
vn -0.0343 -0.1050 -0.9939
vn -0.0510 -0.0811 -0.9954
vn -0.0800 -0.0544 -0.9953
vn -0.1001 -0.0445 -0.9940
vn -0.1004 -0.0438 -0.9940
vn -0.0886 -0.0349 -0.9955
vn -0.0826 -0.0165 -0.9964
vn -0.0822 -0.0123 -0.9965
vn -0.0824 -0.0117 -0.9965
vn -0.0934 -0.0418 -0.9947
vn -0.0912 -0.0467 -0.9947
vn -0.0413 -0.0923 -0.9949
vn -0.0766 -0.0927 -0.9927
vn -0.0275 -0.0468 -0.9985
vn -0.0254 -0.0420 -0.9988
vn -0.0363 -0.0124 -0.9993
vn -0.1138 0.1362 -0.9841
vn -0.0046 0.1340 -0.9910
vn -0.0223 -0.0443 -0.9988
vn -0.0590 -0.0667 -0.9960
vn -0.0967 -0.0441 -0.9943
vn -0.0437 -0.0445 -0.9981
vn -0.0747 -0.0444 -0.9962
vn 0.0591 -0.0316 -0.9977
vn 0.1012 0.0219 -0.9946
vn 0.0841 -0.0062 -0.9964
vn 0.0830 -0.0120 -0.9965
vn 0.0833 -0.0209 -0.9963
vn 0.0864 -0.0305 -0.9958
vn 0.0919 -0.0382 -0.9950
vn 0.0982 -0.0427 -0.9942
vn 0.1024 -0.0441 -0.9938
vn 0.1025 -0.0442 -0.9938
vn 0.0970 -0.0456 -0.9942
vn 0.0868 -0.0505 -0.9949
vn 0.0731 -0.0600 -0.9955
vn 0.0581 -0.0737 -0.9956
vn 0.0449 -0.0889 -0.9950
vn 0.0377 -0.0995 -0.9943
vn 0.0325 -0.1088 -0.9935
vn 0.0853 -0.1097 -0.9903
vn 0.0802 -0.1002 -0.9917
vn 0.0729 -0.0892 -0.9933
vn 0.0598 -0.0737 -0.9955
vn 0.0450 -0.0599 -0.9972
vn 0.0318 -0.0506 -0.9982
vn 0.0219 -0.0458 -0.9987
vn 0.0168 -0.0444 -0.9989
vn 0.0168 -0.0443 -0.9989
vn 0.0209 -0.0430 -0.9989
vn 0.0270 -0.0385 -0.9989
vn 0.0323 -0.0308 -0.9990
vn 0.0353 -0.0214 -0.9991
vn 0.0357 -0.0127 -0.9993
vn 0.0347 -0.0070 -0.9994
vn 0.0189 0.0187 -0.9996
vn 0.0365 -0.0130 -0.9992
vn 0.0361 -0.0170 -0.9992
vn 0.0302 -0.0352 -0.9989
vn 0.0187 -0.0440 -0.9989
vn 0.0190 -0.0447 -0.9988
vn 0.0383 -0.0544 -0.9978
vn 0.0669 -0.0812 -0.9945
vn 0.0835 -0.1058 -0.9909
vn 0.0343 -0.1050 -0.9939
vn 0.0510 -0.0811 -0.9954
vn 0.0800 -0.0545 -0.9953
vn 0.1001 -0.0445 -0.9940
vn 0.1004 -0.0438 -0.9940
vn 0.0886 -0.0349 -0.9955
vn 0.0826 -0.0165 -0.9964
vn 0.0822 -0.0123 -0.9965
vn 0.0824 -0.0117 -0.9965
vn 0.0934 -0.0418 -0.9947
vn 0.0912 -0.0467 -0.9947
vn 0.0413 -0.0923 -0.9949
vn 0.0766 -0.0927 -0.9927
vn 0.0275 -0.0468 -0.9985
vn 0.0254 -0.0420 -0.9988
vn 0.0363 -0.0124 -0.9993
vn 0.1138 0.1362 -0.9841
vn 0.0046 0.1340 -0.9910
vn 0.0223 -0.0443 -0.9988
vn 0.0590 -0.0667 -0.9960
vn 0.0967 -0.0441 -0.9943
vn 0.0437 -0.0445 -0.9981
vn 0.0747 -0.0444 -0.9962
vt 1.000000 0.000000
s 0
usemtl armature.001
f 76/1/1 121/1/1 7/1/1
s 1
f 2/1/2 10/1/2 11/1/2
f 12/1/3 14/1/3 15/1/3
s 0
f 16/1/4 20/1/4 22/1/4
f 21/1/5 24/1/5 30/1/5
f 29/1/6 34/1/6 37/1/6
f 35/1/7 38/1/7 42/1/7
f 40/1/8 44/1/8 47/1/8
s 1
f 45/1/9 48/1/9 50/1/9
f 49/1/10 56/1/10 57/1/10
s 0
f 59/1/11 60/1/11 62/1/11
f 64/1/12 66/1/12 67/1/12
f 69/1/13 70/1/13 75/1/13
f 78/1/14 81/1/14 82/1/14
f 84/1/15 85/1/15 87/1/15
f 89/1/16 91/1/16 92/1/16
f 94/1/17 95/1/17 102/1/17
f 96/1/18 103/1/18 104/1/18
f 106/1/19 107/1/19 109/1/19
f 111/1/20 113/1/20 114/1/20
f 116/1/21 117/1/21 120/1/21
f 123/1/22 128/1/22 129/1/22
f 131/1/23 132/1/23 134/1/23
s 1
f 136/1/24 138/1/24 139/1/24
s 0
f 141/1/25 142/1/25 149/1/25
s 1
f 148/1/26 150/1/26 153/1/26
s 0
f 151/1/27 154/1/27 158/1/27
f 156/1/28 160/1/28 163/1/28
f 161/1/29 164/1/29 169/1/29
f 168/1/30 174/1/30 177/1/30
f 176/1/31 178/1/31 182/1/31
f 183/1/32 184/1/32 186/1/32
f 187/1/33 188/1/33 191/1/33
f 179/1/34 185/1/34 189/1/34
f 167/1/35 175/1/35 181/1/35
s 1
f 155/1/36 162/1/36 170/1/36
s 0
f 147/1/37 152/1/37 159/1/37
f 137/1/38 140/1/38 146/1/38
f 125/1/39 130/1/39 133/1/39
f 112/1/40 115/1/40 119/1/40
f 97/1/41 105/1/41 108/1/41
f 90/1/42 93/1/42 101/1/42
f 79/1/43 83/1/43 86/1/43
f 65/1/44 68/1/44 73/1/44
f 52/1/45 58/1/45 61/1/45
f 39/1/46 46/1/46 51/1/46
f 28/1/47 36/1/47 43/1/47
s 1
f 17/1/48 23/1/48 31/1/48
s 0
f 4/1/49 13/1/49 19/1/49
f 3/1/50 18/1/50 32/1/50
f 27/1/51 41/1/51 54/1/51
f 55/1/52 63/1/52 72/1/52
f 80/1/53 88/1/53 100/1/53
f 98/1/54 110/1/54 118/1/54
f 126/1/55 135/1/55 143/1/55
f 144/1/56 157/1/56 171/1/56
f 166/1/57 180/1/57 190/1/57
f 5/1/58 1/1/58 25/1/58
f 173/1/59 192/1/59 9/1/59
f 127/1/60 145/1/60 172/1/60
f 77/1/61 99/1/61 122/1/61
f 26/1/62 53/1/62 71/1/62
f 124/1/63 165/1/63 8/1/63
f 6/1/64 33/1/64 74/1/64
f 267/1/65 199/1/65 316/1/65
f 195/1/66 205/1/66 202/1/66
s 1
f 204/1/67 211/1/67 206/1/67
s 0
f 210/1/68 214/1/68 212/1/68
s 1
f 215/1/69 220/1/69 216/1/69
s 0
f 221/1/70 227/1/70 226/1/70
s 1
f 229/1/71 232/1/71 230/1/71
s 0
f 234/1/72 237/1/72 236/1/72
f 239/1/73 246/1/73 240/1/73
f 247/1/74 251/1/74 248/1/74
f 249/1/75 256/1/75 252/1/75
f 254/1/76 261/1/76 258/1/76
f 259/1/77 268/1/77 262/1/77
f 265/1/78 276/1/78 273/1/78
f 274/1/79 281/1/79 277/1/79
f 279/1/80 286/1/80 283/1/80
f 284/1/81 288/1/81 287/1/81
f 294/1/82 298/1/82 295/1/82
f 296/1/83 303/1/83 299/1/83
f 301/1/84 308/1/84 305/1/84
f 306/1/85 317/1/85 309/1/85
f 314/1/86 323/1/86 320/1/86
f 321/1/87 328/1/87 324/1/87
s 1
f 326/1/88 333/1/88 330/1/88
s 0
f 331/1/89 335/1/89 334/1/89
f 336/1/90 343/1/90 342/1/90
f 345/1/91 348/1/91 346/1/91
f 350/1/92 353/1/92 352/1/92
f 355/1/93 361/1/93 356/1/93
f 362/1/94 367/1/94 366/1/94
f 368/1/95 372/1/95 370/1/95
f 371/1/96 378/1/96 376/1/96
f 377/1/97 382/1/97 380/1/97
f 375/1/98 384/1/98 379/1/98
f 363/1/99 373/1/99 369/1/99
f 351/1/100 360/1/100 354/1/100
f 337/1/101 347/1/101 344/1/101
f 325/1/102 338/1/102 332/1/102
f 312/1/103 329/1/103 322/1/103
f 300/1/104 318/1/104 307/1/104
f 293/1/105 304/1/105 297/1/105
f 278/1/106 289/1/106 285/1/106
f 264/1/107 282/1/107 275/1/107
f 253/1/108 270/1/108 260/1/108
f 244/1/109 257/1/109 250/1/109
f 235/1/110 245/1/110 238/1/110
f 222/1/111 231/1/111 228/1/111
s 1
f 209/1/112 219/1/112 213/1/112
s 0
f 193/1/113 207/1/113 203/1/113
f 194/1/114 218/1/114 208/1/114
f 223/1/115 242/1/115 233/1/115
s 1
f 241/1/116 271/1/116 255/1/116
f 263/1/117 290/1/117 280/1/117
s 0
f 292/1/118 319/1/118 302/1/118
s 1
f 311/1/119 341/1/119 327/1/119
s 0
f 340/1/120 359/1/120 349/1/120
s 1
f 364/1/121 383/1/121 374/1/121
s 0
f 201/1/122 225/1/122 196/1/122
f 357/1/123 197/1/123 381/1/123
f 310/1/124 358/1/124 339/1/124
f 266/1/125 315/1/125 291/1/125
f 224/1/126 272/1/126 243/1/126
f 313/1/127 198/1/127 365/1/127
f 200/1/128 269/1/128 217/1/128
